<svg width="20" height="20" viewBox="0 0 20 20" fill="none" xmlns="http://www.w3.org/2000/svg">
<path fill-rule="evenodd" clip-rule="evenodd" d="M13.1598 2.38978L13.1606 2.9909C15.3695 3.16402 16.8286 4.66921 16.831 6.97748L16.8397 13.734C16.8429 16.2507 15.2618 17.7991 12.7275 17.8031L6.53699 17.8112C4.01851 17.8144 2.41764 16.229 2.41448 13.7052L2.40577 7.02798C2.4026 4.70447 3.81029 3.20329 6.0192 3.00051L6.01841 2.3994C6.01762 2.04675 6.27889 1.78145 6.62725 1.78145C6.97561 1.78065 7.23687 2.04514 7.23767 2.3978L7.23846 2.95884L11.9413 2.95242L11.9405 2.39138C11.9397 2.03873 12.201 1.77424 12.5493 1.77344C12.8898 1.77264 13.159 2.03713 13.1598 2.38978ZM3.62584 7.27561L15.6126 7.25958V6.97906C15.5785 5.25586 14.7139 4.35179 13.1622 4.21714L13.163 4.83428C13.163 5.17892 12.8946 5.45223 12.5541 5.45223C12.2058 5.45303 11.9437 5.18052 11.9437 4.83589L11.9429 4.18668L7.24006 4.19309L7.24085 4.8415C7.24085 5.18694 6.98038 5.45944 6.63202 5.45944C6.28366 5.46024 6.0216 5.18854 6.0216 4.8431L6.0208 4.22596C4.47694 4.38064 3.62267 5.28792 3.62504 7.02634L3.62584 7.27561ZM12.2207 10.9185V10.9273C12.2286 11.296 12.5295 11.5757 12.8945 11.5677C13.2507 11.5589 13.535 11.2535 13.527 10.8848C13.5104 10.5322 13.2246 10.2444 12.8691 10.2452C12.5049 10.2533 12.2199 10.5498 12.2207 10.9185ZM12.8749 14.5174C12.5107 14.5093 12.217 14.2056 12.2162 13.8369C12.2082 13.4682 12.5004 13.1629 12.8646 13.154H12.8725C13.2446 13.154 13.5463 13.4578 13.5463 13.8345C13.547 14.2112 13.2462 14.5166 12.8749 14.5174ZM8.95912 10.9314C8.97496 11.3001 9.2766 11.5878 9.6408 11.5718C9.99707 11.555 10.2813 11.2504 10.2655 10.8817C10.2568 10.521 9.96382 10.2405 9.60755 10.2413C9.24335 10.2574 8.95833 10.5627 8.95912 10.9314ZM9.64393 14.481C9.27974 14.497 8.97888 14.2093 8.96225 13.8406C8.96225 13.4719 9.24648 13.1673 9.61068 13.1505C9.96695 13.1497 10.2607 13.4302 10.2686 13.7901C10.2852 14.1596 10.0002 14.4641 9.64393 14.481ZM5.69715 10.9592C5.71298 11.3279 6.01463 11.6164 6.37883 11.5996C6.7351 11.5836 7.01933 11.2782 7.0027 10.9095C6.99479 10.5488 6.70185 10.2683 6.34478 10.2691C5.98059 10.2852 5.69636 10.5905 5.69715 10.9592ZM6.38191 14.4851C6.01772 14.502 5.71686 14.2134 5.70024 13.8447C5.69944 13.4761 5.98447 13.1707 6.34866 13.1547C6.70494 13.1539 6.99867 13.4344 7.00658 13.795C7.02321 14.1637 6.73898 14.4691 6.38191 14.4851Z" fill="white"/>
</svg>
