<svg width="20" height="20" viewBox="0 0 20 20" fill="none" xmlns="http://www.w3.org/2000/svg">
<path fill-rule="evenodd" clip-rule="evenodd" d="M5.87855 1.89746H13.3674C16.0946 1.89746 17.6342 3.4443 17.6422 6.17152V13.6611C17.6422 16.3876 16.0946 17.9352 13.3674 17.9352H5.87855C3.15133 17.9352 1.60449 16.3876 1.60449 13.6611V6.17152C1.60449 3.4443 3.15133 1.89746 5.87855 1.89746ZM9.66236 14.6155C10.008 14.6155 10.2959 14.3589 10.3279 14.0141V5.84283C10.36 5.59425 10.2405 5.34486 10.024 5.20934C9.79868 5.07302 9.52604 5.07302 9.31033 5.20934C9.09302 5.34486 8.97354 5.59425 8.9968 5.84283V14.0141C9.03769 14.3589 9.32557 14.6155 9.66236 14.6155ZM13.3518 14.6156C13.6886 14.6156 13.9765 14.359 14.0174 14.0142V11.384C14.0407 11.1266 13.9212 10.8868 13.7039 10.7505C13.4882 10.6142 13.2155 10.6142 12.991 10.7505C12.7737 10.8868 12.6542 11.1266 12.6863 11.384V14.0142C12.7184 14.359 13.0062 14.6156 13.3518 14.6156ZM6.59118 14.0143C6.5591 14.3591 6.27122 14.6157 5.92561 14.6157C5.5808 14.6157 5.29212 14.3591 5.26085 14.0143V8.47324C5.23679 8.22385 5.35627 7.97607 5.57358 7.83975C5.78929 7.70343 6.06273 7.70343 6.27924 7.83975C6.49495 7.97607 6.61603 8.22385 6.59118 8.47324V14.0143Z" fill="white"/>
</svg>
