<svg width="20" height="20" viewBox="0 0 20 20" fill="none" xmlns="http://www.w3.org/2000/svg">
<path fill-rule="evenodd" clip-rule="evenodd" d="M16.3605 11.6442C16.6474 11.7966 16.8686 12.0372 17.0243 12.2777C17.3275 12.7749 17.303 13.3843 17.0079 13.9216L16.4343 14.8839C16.1311 15.3971 15.5656 15.7178 14.9838 15.7178C14.697 15.7178 14.3774 15.6376 14.1151 15.4773C13.9021 15.3409 13.6562 15.2928 13.394 15.2928C12.5827 15.2928 11.9025 15.9584 11.8779 16.7523C11.8779 17.6744 11.124 18.3961 10.1816 18.3961H9.06704C8.11643 18.3961 7.36249 17.6744 7.36249 16.7523C7.3461 15.9584 6.66592 15.2928 5.85462 15.2928C5.58419 15.2928 5.33834 15.3409 5.13347 15.4773C4.87123 15.6376 4.54343 15.7178 4.2648 15.7178C3.67477 15.7178 3.10932 15.3971 2.8061 14.8839L2.24065 13.9216C1.93744 13.4004 1.92105 12.7749 2.22426 12.2777C2.35538 12.0372 2.60123 11.7966 2.87986 11.6442C3.10932 11.532 3.25683 11.3475 3.39614 11.131C3.80589 10.4414 3.56004 9.53528 2.86347 9.12632C2.05217 8.66925 1.78993 7.65085 2.25704 6.85698L2.8061 5.91076C3.28141 5.11689 4.29758 4.83623 5.11708 5.30132C5.83004 5.68623 6.75607 5.42962 7.17401 4.74802C7.30513 4.52349 7.37888 4.28293 7.36249 4.04236C7.3461 3.72962 7.43625 3.43293 7.59195 3.19236C7.89516 2.69519 8.44422 2.37444 9.04245 2.3584H10.1979C10.8044 2.3584 11.3534 2.69519 11.6566 3.19236C11.8041 3.43293 11.9025 3.72962 11.8779 4.04236C11.8615 4.28293 11.9353 4.52349 12.0664 4.74802C12.4843 5.42962 13.4104 5.68623 14.1315 5.30132C14.9428 4.83623 15.9672 5.11689 16.4343 5.91076L16.9834 6.85698C17.4587 7.65085 17.1964 8.66925 16.3769 9.12632C15.6804 9.53528 15.4345 10.4414 15.8525 11.131C15.9836 11.3475 16.1311 11.532 16.3605 11.6442ZM7.30519 10.3855C7.30519 11.6445 8.34595 12.6468 9.63255 12.6468C10.9192 12.6468 11.9353 11.6445 11.9353 10.3855C11.9353 9.12656 10.9192 8.11618 9.63255 8.11618C8.34595 8.11618 7.30519 9.12656 7.30519 10.3855Z" fill="white"/>
</svg>
