<svg width="20" height="20" viewBox="0 0 20 20" fill="none" xmlns="http://www.w3.org/2000/svg">
<path fill-rule="evenodd" clip-rule="evenodd" d="M13.7763 4.12102C13.7763 3.05451 14.6423 2.18848 15.7088 2.18848C16.7754 2.18848 17.6414 3.05451 17.6414 4.12102C17.6414 5.18753 16.7754 6.05357 15.7088 6.05357C14.6423 6.05357 13.7763 5.18753 13.7763 4.12102ZM10.6888 12.4202L13.0063 9.42997L12.9742 9.44601C13.1025 9.26959 13.1266 9.04506 13.0384 8.84459C12.951 8.64412 12.7577 8.5078 12.55 8.49176C12.3327 8.4677 12.117 8.56393 11.9879 8.74035L10.0481 11.2503L7.82609 9.50214C7.68977 9.39789 7.52939 9.357 7.36902 9.37384C7.20944 9.39789 7.0651 9.4853 6.96807 9.6136L4.59529 12.7017L4.54638 12.7738C4.41005 13.0296 4.47421 13.3584 4.71477 13.5356C4.82704 13.6078 4.94732 13.6559 5.08364 13.6559C5.26888 13.6639 5.44449 13.5669 5.55675 13.4153L7.56949 10.8244L9.85487 12.5413L9.92704 12.5886C10.1836 12.7249 10.5044 12.6616 10.6888 12.4202ZM12.3889 3.61605C12.3568 3.81653 12.3408 4.017 12.3408 4.21747C12.3408 6.02171 13.8002 7.48035 15.5964 7.48035C15.7969 7.48035 15.9894 7.45709 16.1898 7.42502V13.8954C16.1898 16.6146 14.5861 18.2264 11.8596 18.2264H5.93451C3.20729 18.2264 1.60352 16.6146 1.60352 13.8954V7.96228C1.60352 5.23587 3.20729 3.61605 5.93451 3.61605H12.3889Z" fill="white"/>
</svg>
