<svg width="13" height="13" viewBox="0 0 13 13" fill="none" xmlns="http://www.w3.org/2000/svg">
<g clip-path="url(#clip0)">
<path d="M9.68455 4.45624C9.68455 3.62428 9.35405 2.8264 8.76577 2.23811C8.17749 1.64983 7.3796 1.31934 6.54764 1.31934C5.71568 1.31934 4.9178 1.64983 4.32952 2.23811C3.74123 2.8264 3.41074 3.62428 3.41074 4.45624C3.41074 8.11596 1.84229 9.1616 1.84229 9.1616H11.253C11.253 9.1616 9.68455 8.11596 9.68455 4.45624Z" stroke="white" stroke-linecap="round" stroke-linejoin="round"/>
<path d="M7.45226 11.2529C7.36034 11.4114 7.22841 11.5429 7.06968 11.6343C6.91094 11.7258 6.73097 11.7739 6.54779 11.7739C6.3646 11.7739 6.18463 11.7258 6.02589 11.6343C5.86716 11.5429 5.73523 11.4114 5.64331 11.2529" stroke="white" stroke-linecap="round" stroke-linejoin="round"/>
</g>
<defs>
<clipPath id="clip0">
<rect width="12.5476" height="12.5476" fill="white" transform="translate(0.273926 0.273926)"/>
</clipPath>
</defs>
</svg>
