<svg width="12" height="12" viewBox="0 0 12 12" fill="none" xmlns="http://www.w3.org/2000/svg">
<path fill-rule="evenodd" clip-rule="evenodd" d="M2.5 3C2.36739 3 2.24021 3.05268 2.14645 3.14645C2.05268 3.24021 2 3.36739 2 3.5V9.5C2 9.63261 2.05268 9.75978 2.14645 9.85355C2.24021 9.94732 2.36739 10 2.5 10H5.8975C6.17364 10 6.3975 10.2239 6.3975 10.5C6.3975 10.7761 6.17364 11 5.8975 11H2.5C2.10217 11 1.72064 10.842 1.43934 10.5607C1.15804 10.2794 1 9.89782 1 9.5V3.5C1 3.10217 1.15804 2.72064 1.43934 2.43934C1.72064 2.15804 2.10218 2 2.5 2H8.5C8.89782 2 9.27935 2.15804 9.56066 2.43934C9.84196 2.72064 10 3.10217 10 3.5V5.5C10 5.77614 9.77614 6 9.5 6C9.22386 6 9 5.77614 9 5.5V3.5C9 3.36739 8.94732 3.24021 8.85355 3.14645C8.75978 3.05268 8.63261 3 8.5 3H2.5Z" fill="white"/>
<path fill-rule="evenodd" clip-rule="evenodd" d="M9 7.5C8.17157 7.5 7.5 8.17157 7.5 9C7.5 9.82843 8.17157 10.5 9 10.5C9.82843 10.5 10.5 9.82843 10.5 9C10.5 8.17157 9.82843 7.5 9 7.5ZM6.5 9C6.5 7.61929 7.61929 6.5 9 6.5C10.3807 6.5 11.5 7.61929 11.5 9C11.5 10.3807 10.3807 11.5 9 11.5C7.61929 11.5 6.5 10.3807 6.5 9Z" fill="white"/>
<path fill-rule="evenodd" clip-rule="evenodd" d="M7.5 1C7.77614 1 8 1.22386 8 1.5V3.5C8 3.77614 7.77614 4 7.5 4C7.22386 4 7 3.77614 7 3.5V1.5C7 1.22386 7.22386 1 7.5 1Z" fill="white"/>
<path fill-rule="evenodd" clip-rule="evenodd" d="M3.5 1C3.77614 1 4 1.22386 4 1.5V3.5C4 3.77614 3.77614 4 3.5 4C3.22386 4 3 3.77614 3 3.5V1.5C3 1.22386 3.22386 1 3.5 1Z" fill="white"/>
<path fill-rule="evenodd" clip-rule="evenodd" d="M1 5.5C1 5.22386 1.22386 5 1.5 5H9.5C9.77614 5 10 5.22386 10 5.5C10 5.77614 9.77614 6 9.5 6H1.5C1.22386 6 1 5.77614 1 5.5Z" fill="white"/>
<path fill-rule="evenodd" clip-rule="evenodd" d="M9 7.748C9.27614 7.748 9.5 7.97186 9.5 8.248V8.79289L9.85355 9.14645C10.0488 9.34171 10.0488 9.65829 9.85355 9.85355C9.65829 10.0488 9.34171 10.0488 9.14644 9.85355L8.64645 9.35355C8.55268 9.25978 8.5 9.13261 8.5 9V8.248C8.5 7.97186 8.72386 7.748 9 7.748Z" fill="white"/>
</svg>
