<svg width="20" height="20" viewBox="0 0 20 20" fill="none" xmlns="http://www.w3.org/2000/svg">
<path d="M7.32522 16.6576V14.2057C7.32522 13.5797 7.83634 13.0723 8.46684 13.0723H10.7716C11.0744 13.0723 11.3647 13.1917 11.5788 13.4043C11.7929 13.6168 11.9132 13.9051 11.9132 14.2057V16.6576C11.9113 16.9178 12.0141 17.168 12.1988 17.3527C12.3834 17.5374 12.6347 17.6412 12.8969 17.6412H14.4693C15.2036 17.6431 15.9086 17.3549 16.4286 16.84C16.9485 16.3252 17.2407 15.6261 17.2407 14.8971V7.91185C17.2407 7.32294 16.9778 6.76433 16.5227 6.3865L11.1737 2.14549C10.2432 1.40189 8.91002 1.4259 8.00732 2.20251L2.78032 6.3865C2.30378 6.75319 2.01896 7.31346 2.00488 7.91185V14.8899C2.00488 16.4094 3.24571 17.6412 4.77634 17.6412H6.31285C6.85728 17.6413 7.29974 17.2052 7.30368 16.6647L7.32522 16.6576Z" fill="white"/>
</svg>
