<svg width="10" height="10" viewBox="0 0 10 10" fill="none" xmlns="http://www.w3.org/2000/svg">
<path d="M5 0.625C4.13471 0.625 3.28885 0.881589 2.56938 1.36232C1.84992 1.84305 1.28916 2.52633 0.958029 3.32576C0.626896 4.12519 0.540256 5.00485 0.709066 5.85352C0.877877 6.70219 1.29455 7.48174 1.90641 8.09359C2.51826 8.70545 3.29781 9.12212 4.14648 9.29094C4.99515 9.45975 5.87481 9.37311 6.67424 9.04197C7.47367 8.71084 8.15695 8.15008 8.63768 7.43062C9.11841 6.71115 9.375 5.86529 9.375 5C9.37368 3.84008 8.91232 2.72805 8.09213 1.90787C7.27195 1.08768 6.15992 0.626323 5 0.625ZM5 8.75C4.00544 8.75 3.05161 8.35491 2.34835 7.65165C1.64509 6.94839 1.25 5.99456 1.25 5C1.25 4.00544 1.64509 3.05161 2.34835 2.34835C3.05161 1.64509 4.00544 1.25 5 1.25V5L7.65031 7.65031C7.30274 7.99913 6.88969 8.27584 6.43486 8.46456C5.98004 8.65327 5.49242 8.75028 5 8.75Z" fill="white"/>
</svg>
