<svg width="9" height="9" viewBox="0 0 9 9" fill="none" xmlns="http://www.w3.org/2000/svg">
<path d="M0 4.50878C0 3.69291 0.202017 2.93852 0.606051 2.24561C1.01008 1.5527 1.55758 1.0052 2.24854 0.603123C2.93949 0.201041 3.69096 0 4.50293 0C5.11191 0 5.69356 0.119063 6.24789 0.357189C6.80221 0.595316 7.28042 0.91542 7.6825 1.3175C8.08458 1.71958 8.40468 2.19876 8.64281 2.75504C8.88094 3.31132 9 3.8959 9 4.50878C9 5.11776 8.88094 5.70039 8.64281 6.25667C8.40468 6.81295 8.08458 7.29115 7.6825 7.69128C7.28042 8.09141 6.80221 8.40956 6.24789 8.64574C5.69356 8.88191 5.11191 9 4.50293 9C3.89005 9 3.30547 8.88094 2.74919 8.64281C2.19291 8.40468 1.71373 8.08458 1.31165 7.6825C0.909564 7.28042 0.590436 6.80319 0.354262 6.25081C0.118087 5.69844 0 5.11776 0 4.50878ZM0.98959 4.50878C0.98959 5.45738 1.33507 6.28107 2.02602 6.97983C2.71698 7.67079 3.54262 8.01626 4.50293 8.01626C5.13533 8.01626 5.72088 7.85914 6.2596 7.54489C6.79831 7.23064 7.22576 6.80416 7.54196 6.26545C7.85817 5.72674 8.01626 5.14118 8.01626 4.50878C8.01626 3.87638 7.85817 3.28985 7.54196 2.74919C7.22576 2.20852 6.79831 1.78107 6.2596 1.46682C5.72088 1.15257 5.13533 0.995446 4.50293 0.995446C3.87053 0.995446 3.28497 1.15257 2.74626 1.46682C2.20755 1.78107 1.78009 2.20852 1.46389 2.74919C1.14769 3.28985 0.98959 3.87638 0.98959 4.50878ZM4.15745 4.50878V1.8445C4.15745 1.75081 4.18965 1.67176 4.25407 1.60735C4.31848 1.54294 4.39753 1.51074 4.49122 1.51074C4.58491 1.51074 4.66396 1.54294 4.72837 1.60735C4.79278 1.67176 4.82498 1.75081 4.82498 1.8445V4.30384L6.2596 5.14118C6.33767 5.18803 6.38842 5.25537 6.41184 5.3432C6.43526 5.43103 6.42355 5.51399 6.37671 5.59206C6.31425 5.70527 6.21861 5.76187 6.08979 5.76187C6.02342 5.76187 5.96682 5.74626 5.91997 5.71503L4.39167 4.82498C4.32531 4.80547 4.26968 4.76643 4.22479 4.70787C4.1799 4.64932 4.15745 4.58295 4.15745 4.50878Z" fill="white"/>
</svg>
