<svg width="20" height="21" viewBox="0 0 20 21" fill="none" xmlns="http://www.w3.org/2000/svg">
<path fill-rule="evenodd" clip-rule="evenodd" d="M12.9575 7.47825C12.9575 9.36243 11.4554 10.8732 9.58213 10.8732C7.70884 10.8732 6.20676 9.36243 6.20676 7.47825C6.20676 5.59335 7.70884 4.08398 9.58213 4.08398C11.4554 4.08398 12.9575 5.59335 12.9575 7.47825ZM9.58197 16.9141C6.83055 16.9141 4.48122 16.4779 4.48122 14.7331C4.48122 12.9876 6.81547 12.5355 9.58197 12.5355C12.3334 12.5355 14.6827 12.9717 14.6827 14.7172C14.6827 16.462 12.3485 16.9141 9.58197 16.9141ZM14.4001 7.53962C14.4001 8.50013 14.1136 9.39491 13.611 10.1388C13.5593 10.2153 13.6052 10.3186 13.6964 10.3345C13.8221 10.3561 13.952 10.3684 14.0841 10.372C15.4017 10.4067 16.5843 9.55379 16.9109 8.26975C17.3949 6.36246 15.9739 4.65016 14.1646 4.65016C13.9678 4.65016 13.7797 4.6711 13.5966 4.70866C13.5715 4.71443 13.5449 4.72599 13.5305 4.74838C13.5133 4.77582 13.5262 4.81265 13.5435 4.83648C14.087 5.60272 14.4001 6.53723 14.4001 7.53962ZM16.5821 11.7119C17.4674 11.886 18.0497 12.2413 18.2909 12.7576C18.4948 13.1816 18.4948 13.6734 18.2909 14.0966C17.9219 14.8975 16.7321 15.1546 16.2697 15.221C16.1742 15.2355 16.0974 15.1524 16.1074 15.0564C16.3437 12.8371 14.4646 11.7849 13.9785 11.5429C13.9577 11.5321 13.9534 11.5155 13.9556 11.5054C13.957 11.4981 13.9656 11.4866 13.9814 11.4844C15.0333 11.4649 16.1642 11.6094 16.5821 11.7119ZM5.16226 10.3716C5.29437 10.368 5.42361 10.3565 5.54998 10.3341C5.64117 10.3182 5.68712 10.2149 5.63543 10.1384C5.13282 9.39452 4.84633 8.49974 4.84633 7.53923C4.84633 6.53684 5.15938 5.60233 5.70292 4.83609C5.72015 4.81226 5.73236 4.77543 5.71584 4.74799C5.70148 4.72632 5.6742 4.71404 5.64979 4.70827C5.46598 4.67071 5.27786 4.64977 5.08112 4.64977C3.27173 4.64977 1.85079 6.36207 2.33545 8.26936C2.66214 9.5534 3.84471 10.4063 5.16226 10.3716ZM5.29036 11.505C5.29251 11.5159 5.2882 11.5318 5.2681 11.5433C4.78129 11.7852 2.90225 12.8375 3.13848 15.056C3.14853 15.1528 3.07242 15.2351 2.97692 15.2214C2.51452 15.155 1.32478 14.8979 0.955721 14.097C0.751088 13.673 0.751088 13.182 0.955721 12.758C1.19697 12.2417 1.77856 11.8864 2.66387 11.7116C3.08247 11.6098 4.21262 11.4653 5.26523 11.4848C5.28102 11.487 5.28892 11.4985 5.29036 11.505Z" fill="white"/>
</svg>
