<svg width="28" height="32" viewBox="0 0 28 32" fill="none" xmlns="http://www.w3.org/2000/svg">
<path d="M3.40192 32.0004C5.28074 32.0004 6.80383 30.4465 6.80383 28.5296C6.80383 26.6128 5.28074 25.0588 3.40192 25.0588C1.52309 25.0588 0 26.6128 0 28.5296C0 30.4465 1.52309 32.0004 3.40192 32.0004Z" fill="white"/>
<path d="M27.2601 7.36349L27.2417 25.8213C27.2403 26.6334 26.9159 27.4281 26.3494 27.9989L23.2662 31.1128C22.6997 31.685 21.9476 32 21.1502 32H11.3269C9.66134 32 8.31021 30.6229 8.31021 28.9222V11.5553C8.31021 9.85604 9.65993 8.47755 11.3269 8.47755H21.0554C21.5114 8.47755 21.8796 8.85468 21.8796 9.31852V10.1595C21.8796 10.6248 21.51 11.0004 21.0554 11.0004H11.3269C11.0281 11.0004 10.7859 11.2475 10.7859 11.5524V28.9193C10.7859 29.2242 11.0281 29.4713 11.3269 29.4713H19.3431V24.7058C19.3431 24.3518 19.6249 24.0643 19.9719 24.0643H24.7689L24.7859 7.3606C24.7859 7.16409 24.6881 7.03549 24.6301 6.97624C24.572 6.917 24.4445 6.8173 24.2533 6.8173H7.22392C6.92508 6.8173 6.6829 7.06439 6.6829 7.36927V20.6123C6.6829 22.3116 5.33318 23.69 3.66621 23.69H3.09969C1.43414 23.69 0.0830078 22.313 0.0830078 20.6123V3.07775C0.0830078 1.37704 1.43414 0 3.09969 0H25.2008C25.6569 0 26.0251 0.377133 26.0251 0.840964V1.68193C26.0251 2.1472 25.6554 2.52289 25.2008 2.52289H3.09969C2.80086 2.52289 2.55867 2.76998 2.55867 3.07486V20.6108C2.55867 20.9157 2.80086 21.1628 3.09969 21.1628H3.66621C3.96504 21.1628 4.20723 20.9157 4.20723 20.6108V7.36927C4.20723 5.67 5.55695 4.29152 7.22392 4.29152H24.208C25.0493 4.29152 25.8622 4.62964 26.4401 5.25386C26.9698 5.82606 27.2615 6.57166 27.2601 7.36349Z" fill="white"/>
</svg>
