<svg width="28" height="32" viewBox="0 0 28 32" fill="none" xmlns="http://www.w3.org/2000/svg">
<path d="M27.2603 7.36349L27.2419 25.8213C27.2405 26.6334 26.9162 27.4281 26.3497 27.9989L23.2664 31.1128C22.6999 31.685 21.9479 32 21.1505 32H11.3271C9.66159 32 8.31045 30.6229 8.31045 28.9222V11.5553C8.31045 9.85604 9.66017 8.47755 11.3271 8.47755H21.0556C21.5116 8.47755 21.8799 8.85468 21.8799 9.31852V10.1595C21.8799 10.6248 21.5102 11.0004 21.0556 11.0004H11.3271C11.0283 11.0004 10.7861 11.2475 10.7861 11.5524V28.9193C10.7861 29.2242 11.0283 29.4713 11.3271 29.4713H19.3433V24.7058C19.3433 24.3518 19.6252 24.0643 19.9721 24.0643H24.7691L24.7861 7.3606C24.7861 7.16409 24.6884 7.03549 24.6303 6.97624C24.5722 6.917 24.4448 6.8173 24.2536 6.8173H7.22416C6.92532 6.8173 6.68314 7.06439 6.68314 7.36927V20.6123C6.68314 22.3116 5.33342 23.69 3.66645 23.69H3.09994C1.43439 23.69 0.083252 22.313 0.083252 20.6123V3.07775C0.083252 1.37704 1.43439 0 3.09994 0H25.2011C25.6571 0 26.0253 0.377133 26.0253 0.840964V1.68193C26.0253 2.1472 25.6557 2.52289 25.2011 2.52289H3.09994C2.8011 2.52289 2.55892 2.76998 2.55892 3.07486V20.6108C2.55892 20.9157 2.8011 21.1628 3.09994 21.1628H3.66645C3.96529 21.1628 4.20747 20.9157 4.20747 20.6108V7.36927C4.20747 5.67 5.55719 4.29152 7.22416 4.29152H24.2083C25.0495 4.29152 25.8625 4.62964 26.4403 5.25386C26.97 5.82606 27.2618 6.57166 27.2603 7.36349Z" fill="white"/>
</svg>
