<svg width="32" height="37" viewBox="0 0 32 37" fill="none" xmlns="http://www.w3.org/2000/svg">
<g clip-path="url(#clip0)">
<path d="M3.99356 36.9999C6.19914 36.9999 7.98711 35.2032 7.98711 32.9869C7.98711 30.7705 6.19914 28.9738 3.99356 28.9738C1.78798 28.9738 0 30.7705 0 32.9869C0 35.2032 1.78798 36.9999 3.99356 36.9999Z" fill="#FFAC08"/>
<path d="M32 8.51404L31.9784 29.856C31.9767 30.7949 31.596 31.7138 30.931 32.3737L27.3115 35.9742C26.6464 36.6358 25.7636 37 24.8276 37H13.2958C11.3406 37 9.75446 35.4078 9.75446 33.4413V13.3608C9.75446 11.3961 11.3389 9.80218 13.2958 9.80218H24.7162C25.2515 9.80218 25.6838 10.2382 25.6838 10.7745V11.7469C25.6838 12.2849 25.2499 12.7193 24.7162 12.7193H13.2958C12.945 12.7193 12.6607 13.005 12.6607 13.3575V33.438C12.6607 33.7905 12.945 34.0762 13.2958 34.0762H22.7061V28.5662C22.7061 28.1568 23.0369 27.8243 23.4443 27.8243H29.0755L29.0955 8.5107C29.0955 8.28348 28.9807 8.13479 28.9126 8.06629C28.8444 7.99779 28.6948 7.88251 28.4703 7.88251H8.47925C8.12844 7.88251 7.84414 8.1682 7.84414 8.52073V23.833C7.84414 25.7978 6.25968 27.3916 4.30281 27.3916H3.63777C1.68255 27.3916 0.0964355 25.7994 0.0964355 23.833V3.55866C0.0964355 1.59221 1.68255 0 3.63777 0H29.5826C30.1179 0 30.5502 0.436061 30.5502 0.972365V1.94473C30.5502 2.48271 30.1163 2.9171 29.5826 2.9171H3.63777C3.28696 2.9171 3.00265 3.20279 3.00265 3.55531V23.8313C3.00265 24.1838 3.28696 24.4695 3.63777 24.4695H4.30281C4.65361 24.4695 4.93792 24.1838 4.93792 23.8313V8.52073C4.93792 6.55595 6.52237 4.96207 8.47925 4.96207H28.4171C29.4047 4.96207 30.359 5.35302 31.0374 6.07478C31.6592 6.73639 32.0017 7.59848 32 8.51404Z" fill="#1B1464"/>
</g>
<defs>
<clipPath id="clip0">
<rect width="32" height="37" fill="white"/>
</clipPath>
</defs>
</svg>
