<svg width="500" height="680" viewBox="0 0 452 637" fill="none" xmlns="http://www.w3.org/2000/svg">
<path d="M222 154.5C222 180.181 243.714 201 270.5 201C297.286 201 319 180.181 319 154.5C319 128.819 297.286 108 270.5 108C243.714 108 222 128.819 222 154.5Z" stroke="#FBB03B"/>
<path d="M1.00001 47.5C1 73.1812 22.7142 94 49.5 94C76.2858 94 98 73.1812 98 47.5C98 21.8188 76.2858 0.999999 49.5 0.999998C22.7142 0.999997 1.00001 21.8188 1.00001 47.5Z" stroke="#FBB03B"/>
<path d="M222 589.5C222 615.181 243.714 636 270.5 636C297.286 636 319 615.181 319 589.5C319 563.819 297.286 543 270.5 543C243.714 543 222 563.819 222 589.5Z" stroke="#FBB03B"/>
<path d="M388.75 291L388.75 64.3333C388.75 58.8 384.116 54.3333 378.375 54.3333L163.958 54.3333C158.218 54.3333 153.583 49.8667 153.583 44.3333C153.583 38.8 158.218 34.3333 163.958 34.3333L406.042 34.3333C411.782 34.3333 416.417 38.8 416.417 44.3333L416.417 291C416.417 296.533 421.051 301 426.792 301L440.625 301C446.366 301 451 296.533 451 291L451 11C451 5.46667 446.366 1 440.625 1L129.375 0.999986C123.634 0.999986 119 5.46665 119 11L119 84.3333C119 89.8667 123.634 94.3333 129.375 94.3333L343.792 94.3333C349.532 94.3333 354.167 98.8 354.167 104.333L354.167 291C354.167 296.533 358.801 301 364.542 301L378.375 301C384.116 301 388.75 296.467 388.75 291Z" stroke="#1B1464"/>
<path d="M63.25 505L63.25 278.333C63.25 272.8 67.8842 268.333 73.625 268.333L288.042 268.333C293.782 268.333 298.417 263.867 298.417 258.333C298.417 252.8 293.782 248.333 288.042 248.333L45.9583 248.333C40.2175 248.333 35.5833 252.8 35.5833 258.333L35.5833 505C35.5833 510.533 30.9492 515 25.2083 515L11.375 515C5.63416 515 0.999995 510.533 0.999995 505L1.00001 225C1.00001 219.467 5.63417 215 11.375 215L322.625 215C328.366 215 333 219.467 333 225L333 298.333C333 303.867 328.366 308.333 322.625 308.333L108.208 308.333C102.468 308.333 97.8333 312.8 97.8333 318.333L97.8333 505C97.8333 510.533 93.1992 515 87.4583 515L73.625 515C67.9533 515 63.25 510.467 63.25 505Z" stroke="#1B1464"/>
<path d="M388.75 618.967L388.75 391.544C388.75 385.993 384.116 381.511 378.375 381.511L163.958 381.511C158.218 381.511 153.583 377.03 153.583 371.478C153.583 365.926 158.218 361.444 163.958 361.444L406.042 361.444C411.782 361.444 416.417 365.926 416.417 371.478L416.417 618.967C416.417 624.518 421.051 629 426.792 629L440.625 629C446.366 629 451 624.518 451 618.967L451 338.033C451 332.482 446.366 328 440.625 328L129.375 328C123.634 328 119 332.482 119 338.033L119 411.611C119 417.163 123.634 421.644 129.375 421.644L343.792 421.644C349.532 421.644 354.167 426.126 354.167 431.678L354.167 618.967C354.167 624.518 358.801 629 364.542 629L378.375 629C384.116 629 388.75 624.452 388.75 618.967Z" stroke="#1B1464"/>
<path d="M1.31363 141.242L157.003 141.242C162.747 141.242 167.383 145.716 167.383 151.259C167.383 156.802 162.747 161.277 157.003 161.277L1.31363 161.277L1.31363 201.347L191.601 201.347C197.344 201.347 201.98 196.873 201.98 191.33L201.98 117.867C201.98 112.324 197.344 107.85 191.601 107.85L1.31363 107.85L1.31363 141.242Z" stroke="#1B1464"/>
<path d="M1.31363 575.973L157.003 575.973C162.747 575.973 167.383 580.448 167.383 585.991C167.383 591.534 162.747 596.009 157.003 596.009L1.31363 596.009L1.31363 636.079L191.601 636.079C197.344 636.079 201.98 631.604 201.98 626.061L201.98 552.599C201.98 547.056 197.344 542.581 191.601 542.581L1.31363 542.581L1.31363 575.973Z" stroke="#1B1464"/>
<path d="M333.452 468.488L177.762 468.488C172.019 468.488 167.383 472.962 167.383 478.505C167.383 484.048 172.019 488.523 177.762 488.523L333.452 488.523L333.452 528.593L143.165 528.593C137.421 528.593 132.785 524.119 132.785 518.576L132.785 445.113C132.785 439.57 137.421 435.096 143.165 435.096L333.452 435.096L333.452 468.488V468.488Z" stroke="#1B1464"/>
</svg>
