<svg width="53" height="41" viewBox="0 0 53 41" fill="none" xmlns="http://www.w3.org/2000/svg">
<path d="M19.3157 3.48242H33.6319V29.0819H19.3157V3.48242Z" fill="#FF5F00"/>
<path d="M20.2247 16.2824C20.2247 11.0811 22.6788 6.4677 26.4509 3.48253C23.6788 1.31159 20.1793 0 16.3617 0C7.31711 0 0 7.28172 0 16.2824C0 25.2828 7.31711 32.5647 16.3615 32.5647C20.1791 32.5647 23.6786 31.2531 26.4509 29.082C22.6788 26.1421 20.2247 21.4836 20.2247 16.2824Z" fill="#EB001B"/>
<path d="M52.9473 16.2824C52.9473 25.2828 45.6302 32.5647 36.5858 32.5647C32.7681 32.5647 29.2687 31.2531 26.4963 29.082C30.314 26.097 32.7228 21.4836 32.7228 16.2824C32.7228 11.0811 30.2684 6.4677 26.4963 3.48253C29.2685 1.31159 32.7681 0 36.5858 0C45.6302 0 52.9475 7.32705 52.9475 16.2824H52.9473Z" fill="#F79E1B"/>
</svg>